<mxfile host="Electron" modified="2024-05-07T11:47:37.936Z" agent="Mozilla/5.0 (Windows NT 10.0; Win64; x64) AppleWebKit/537.36 (KHTML, like Gecko) draw.io/24.1.0 Chrome/120.0.6099.109 Electron/28.1.0 Safari/537.36" etag="9iKcKwU-N8je3rwBU8ez" version="24.1.0" type="device">
  <diagram name="Pagina-1" id="qMspaGb80hJYWTigQy1A">
    <mxGraphModel dx="1036" dy="614" grid="1" gridSize="10" guides="1" tooltips="1" connect="1" arrows="1" fold="1" page="1" pageScale="1" pageWidth="827" pageHeight="1169" math="0" shadow="0">
      <root>
        <mxCell id="0" />
        <mxCell id="1" parent="0" />
        <mxCell id="ejxp-fmu4SixDYS9ayLk-1" value="&lt;h1 style=&quot;margin-top: 0px;&quot;&gt;Class diagram ChatCumStaj&lt;/h1&gt;" style="text;html=1;whiteSpace=wrap;overflow=hidden;rounded=0;" vertex="1" parent="1">
          <mxGeometry x="40" y="40" width="360" height="40" as="geometry" />
        </mxCell>
        <mxCell id="ejxp-fmu4SixDYS9ayLk-2" value="&amp;lt;&amp;lt;STANZA&amp;gt;&amp;gt;" style="rounded=0;whiteSpace=wrap;html=1;" vertex="1" parent="1">
          <mxGeometry x="358" y="120" width="120" height="40" as="geometry" />
        </mxCell>
        <mxCell id="ejxp-fmu4SixDYS9ayLk-3" value="- id: ObjectId&lt;br&gt;- codice:String&lt;br&gt;- titolo: String&lt;div&gt;- descrizione: String&lt;br&gt;&lt;/div&gt;" style="rounded=0;whiteSpace=wrap;html=1;" vertex="1" parent="1">
          <mxGeometry x="358" y="160" width="120" height="80" as="geometry" />
        </mxCell>
        <mxCell id="ejxp-fmu4SixDYS9ayLk-4" value="+ AllGet&amp;amp;Set..." style="rounded=0;whiteSpace=wrap;html=1;" vertex="1" parent="1">
          <mxGeometry x="358" y="240" width="120" height="60" as="geometry" />
        </mxCell>
        <mxCell id="ejxp-fmu4SixDYS9ayLk-14" style="edgeStyle=orthogonalEdgeStyle;rounded=0;orthogonalLoop=1;jettySize=auto;html=1;entryX=1;entryY=0.5;entryDx=0;entryDy=0;endArrow=diamond;endFill=1;" edge="1" parent="1" source="ejxp-fmu4SixDYS9ayLk-6" target="ejxp-fmu4SixDYS9ayLk-3">
          <mxGeometry relative="1" as="geometry">
            <Array as="points">
              <mxPoint x="720" y="200" />
            </Array>
          </mxGeometry>
        </mxCell>
        <mxCell id="ejxp-fmu4SixDYS9ayLk-6" value="&amp;lt;&amp;lt;UTENTE&amp;gt;&amp;gt;" style="rounded=0;whiteSpace=wrap;html=1;" vertex="1" parent="1">
          <mxGeometry x="640" y="400" width="120" height="40" as="geometry" />
        </mxCell>
        <mxCell id="ejxp-fmu4SixDYS9ayLk-12" style="edgeStyle=orthogonalEdgeStyle;rounded=0;orthogonalLoop=1;jettySize=auto;html=1;entryX=1;entryY=0.5;entryDx=0;entryDy=0;" edge="1" parent="1" source="ejxp-fmu4SixDYS9ayLk-7" target="ejxp-fmu4SixDYS9ayLk-10">
          <mxGeometry relative="1" as="geometry" />
        </mxCell>
        <mxCell id="ejxp-fmu4SixDYS9ayLk-7" value="- username: String&lt;div&gt;- password: String&lt;br&gt;&lt;/div&gt;" style="rounded=0;whiteSpace=wrap;html=1;" vertex="1" parent="1">
          <mxGeometry x="640" y="440" width="120" height="80" as="geometry" />
        </mxCell>
        <mxCell id="ejxp-fmu4SixDYS9ayLk-8" value="+ AllGet&amp;amp;Set..." style="rounded=0;whiteSpace=wrap;html=1;" vertex="1" parent="1">
          <mxGeometry x="640" y="520" width="120" height="60" as="geometry" />
        </mxCell>
        <mxCell id="ejxp-fmu4SixDYS9ayLk-13" style="edgeStyle=orthogonalEdgeStyle;rounded=0;orthogonalLoop=1;jettySize=auto;html=1;entryX=0;entryY=0.5;entryDx=0;entryDy=0;endArrow=diamond;endFill=0;" edge="1" parent="1" source="ejxp-fmu4SixDYS9ayLk-9" target="ejxp-fmu4SixDYS9ayLk-3">
          <mxGeometry relative="1" as="geometry">
            <Array as="points">
              <mxPoint x="160" y="200" />
            </Array>
          </mxGeometry>
        </mxCell>
        <mxCell id="ejxp-fmu4SixDYS9ayLk-9" value="&amp;lt;&amp;lt;MESSAGGIO&amp;gt;&amp;gt;" style="rounded=0;whiteSpace=wrap;html=1;" vertex="1" parent="1">
          <mxGeometry x="80" y="400" width="120" height="40" as="geometry" />
        </mxCell>
        <mxCell id="ejxp-fmu4SixDYS9ayLk-10" value="- id: ObjectId&lt;br&gt;- dati: String&lt;div&gt;- data: TimeDate&lt;br&gt;&lt;/div&gt;" style="rounded=0;whiteSpace=wrap;html=1;" vertex="1" parent="1">
          <mxGeometry x="80" y="440" width="120" height="80" as="geometry" />
        </mxCell>
        <mxCell id="ejxp-fmu4SixDYS9ayLk-11" value="+ AllGet&amp;amp;Set..." style="rounded=0;whiteSpace=wrap;html=1;" vertex="1" parent="1">
          <mxGeometry x="80" y="520" width="120" height="60" as="geometry" />
        </mxCell>
      </root>
    </mxGraphModel>
  </diagram>
</mxfile>
